<mxfile host="app.diagrams.net" modified="2024-01-21T08:55:11.422Z" agent="Mozilla/5.0 (Macintosh; Intel Mac OS X 10_15_7) AppleWebKit/605.1.15 (KHTML, like Gecko) Version/17.1 Safari/605.1.15" etag="5pKj9ld7xefx7ccawvmv" version="22.1.21" type="github">
  <diagram name="Page-1" id="Wq1hWk5PJHVFCTybiNX8">
    <mxGraphModel dx="857" dy="479" grid="1" gridSize="10" guides="1" tooltips="1" connect="1" arrows="1" fold="1" page="1" pageScale="1" pageWidth="827" pageHeight="1169" math="0" shadow="0">
      <root>
        <mxCell id="0" />
        <mxCell id="1" parent="0" />
        <mxCell id="UjV1TQ1PvvYDovurpNO_-21" value="" style="group" vertex="1" connectable="0" parent="1">
          <mxGeometry x="160" y="240" width="160" height="120" as="geometry" />
        </mxCell>
        <mxCell id="UjV1TQ1PvvYDovurpNO_-2" value="" style="rounded=0;whiteSpace=wrap;html=1;points=[];" vertex="1" parent="UjV1TQ1PvvYDovurpNO_-21">
          <mxGeometry y="20" width="160" height="80" as="geometry" />
        </mxCell>
        <mxCell id="UjV1TQ1PvvYDovurpNO_-3" value="" style="rounded=0;whiteSpace=wrap;html=1;points=[];" vertex="1" parent="UjV1TQ1PvvYDovurpNO_-21">
          <mxGeometry y="100" width="160" height="20" as="geometry" />
        </mxCell>
        <mxCell id="UjV1TQ1PvvYDovurpNO_-4" value="" style="rounded=0;whiteSpace=wrap;html=1;points=[];" vertex="1" parent="UjV1TQ1PvvYDovurpNO_-21">
          <mxGeometry width="160" height="20" as="geometry" />
        </mxCell>
        <mxCell id="UjV1TQ1PvvYDovurpNO_-6" value="Text" style="text;html=1;strokeColor=none;fillColor=none;align=center;verticalAlign=top;whiteSpace=wrap;rounded=0;points=[];fontColor=#919191;fontSize=10;" vertex="1" parent="UjV1TQ1PvvYDovurpNO_-21">
          <mxGeometry y="20" width="160" height="20" as="geometry" />
        </mxCell>
        <mxCell id="UjV1TQ1PvvYDovurpNO_-7" value="Text" style="text;html=1;strokeColor=none;fillColor=none;align=center;verticalAlign=middle;whiteSpace=wrap;rounded=0;points=[];" vertex="1" parent="UjV1TQ1PvvYDovurpNO_-21">
          <mxGeometry y="40" width="160" height="60" as="geometry" />
        </mxCell>
        <mxCell id="UjV1TQ1PvvYDovurpNO_-9" value="" style="ellipse;whiteSpace=wrap;html=1;aspect=fixed;fillColor=#000000;points=[[0.5,0.5,0,0,0]];" vertex="1" parent="UjV1TQ1PvvYDovurpNO_-21">
          <mxGeometry x="20" y="108" width="5" height="5" as="geometry" />
        </mxCell>
        <mxCell id="UjV1TQ1PvvYDovurpNO_-11" value="" style="ellipse;whiteSpace=wrap;html=1;aspect=fixed;fillColor=#000000;points=[[0.5,0.5,0,0,0]];" vertex="1" parent="UjV1TQ1PvvYDovurpNO_-21">
          <mxGeometry x="60" y="108" width="5" height="5" as="geometry" />
        </mxCell>
        <mxCell id="UjV1TQ1PvvYDovurpNO_-12" value="" style="ellipse;whiteSpace=wrap;html=1;aspect=fixed;fillColor=#000000;points=[[0.5,0.5,0,0,0]];" vertex="1" parent="UjV1TQ1PvvYDovurpNO_-21">
          <mxGeometry x="100" y="107.5" width="5" height="5" as="geometry" />
        </mxCell>
        <mxCell id="UjV1TQ1PvvYDovurpNO_-13" value="" style="ellipse;whiteSpace=wrap;html=1;aspect=fixed;fillColor=#0066CC;points=[[0.5,0.5,0,0,0]];strokeColor=#004C99;" vertex="1" parent="UjV1TQ1PvvYDovurpNO_-21">
          <mxGeometry x="140" y="107.5" width="5" height="5" as="geometry" />
        </mxCell>
        <mxCell id="UjV1TQ1PvvYDovurpNO_-17" value="" style="ellipse;whiteSpace=wrap;html=1;aspect=fixed;fillColor=#000000;points=[[0.5,0.5,0,0,0]];" vertex="1" parent="UjV1TQ1PvvYDovurpNO_-21">
          <mxGeometry x="20" y="7.75" width="5" height="5" as="geometry" />
        </mxCell>
        <mxCell id="UjV1TQ1PvvYDovurpNO_-18" value="" style="ellipse;whiteSpace=wrap;html=1;aspect=fixed;fillColor=#000000;points=[[0.5,0.5,0,0,0]];" vertex="1" parent="UjV1TQ1PvvYDovurpNO_-21">
          <mxGeometry x="60" y="7.75" width="5" height="5" as="geometry" />
        </mxCell>
        <mxCell id="UjV1TQ1PvvYDovurpNO_-19" value="" style="ellipse;whiteSpace=wrap;html=1;aspect=fixed;fillColor=#000000;points=[[0.5,0.5,0,0,0]];" vertex="1" parent="UjV1TQ1PvvYDovurpNO_-21">
          <mxGeometry x="100" y="7.25" width="5" height="5" as="geometry" />
        </mxCell>
        <mxCell id="UjV1TQ1PvvYDovurpNO_-20" value="" style="ellipse;whiteSpace=wrap;html=1;aspect=fixed;fillColor=#0066CC;points=[[0.5,0.5,0,0,0]];strokeColor=#004C99;" vertex="1" parent="UjV1TQ1PvvYDovurpNO_-21">
          <mxGeometry x="140" y="7.25" width="5" height="5" as="geometry" />
        </mxCell>
      </root>
    </mxGraphModel>
  </diagram>
</mxfile>
